<svg id="Groupe_14" data-name="Groupe 14" xmlns="http://www.w3.org/2000/svg" width="53.538" height="53.538" viewBox="0 0 53.538 53.538">
  <path id="Tracé_2049" data-name="Tracé 2049" d="M320.769,234a26.769,26.769,0,1,0,26.769,26.769A26.768,26.768,0,0,0,320.769,234Zm0,51.1A24.336,24.336,0,1,1,345.1,260.769,24.335,24.335,0,0,1,320.769,285.1Z" transform="translate(-294 -234)" fill="#fff"/>
  <path id="Icon_awesome-google" data-name="Icon awesome-google" d="M28.318,15.29c0,8.211-5.623,14.054-13.927,14.054a14.391,14.391,0,1,1,0-28.782,13.839,13.839,0,0,1,9.65,3.766L20.124,8.095C15,3.151,5.472,6.864,5.472,14.953a9.014,9.014,0,0,0,8.919,9.087c5.7,0,7.834-4.085,8.17-6.2h-8.17v-4.95h13.7A12.616,12.616,0,0,1,28.318,15.29Z" transform="translate(12.61 11.816)" fill="#fff"/>
</svg>
