<svg id="Groupe_15" data-name="Groupe 15" xmlns="http://www.w3.org/2000/svg" width="53.538" height="53.538" viewBox="0 0 53.538 53.538">
  <path id="Tracé_2051" data-name="Tracé 2051" d="M388.081,258.092q-.774.571-1.257.889a7.7,7.7,0,0,1-1.282.652,3.918,3.918,0,0,1-1.494.332h-.027a3.918,3.918,0,0,1-1.494-.332,7.715,7.715,0,0,1-1.284-.652q-.482-.319-1.256-.889c-.144-.106-.3-.221-.476-.344l-6.9,6.9a2.081,2.081,0,0,0,1.425.537h19.989a2.078,2.078,0,0,0,1.424-.537l-6.894-6.9C388.393,257.867,388.232,257.983,388.081,258.092Z" transform="translate(-357.265 -228.852)" fill="#fff"/>
  <path id="Tracé_2052" data-name="Tracé 2052" d="M373.371,254.391A7.226,7.226,0,0,1,372,253.21V263.7l6.077-6.077Q376.253,256.349,373.371,254.391Z" transform="translate(-357.399 -229.836)" fill="#fff"/>
  <path id="Tracé_2053" data-name="Tracé 2053" d="M387.008,257.626l6.074,6.074V253.21a7.493,7.493,0,0,1-1.358,1.182Q388.95,256.27,387.008,257.626Z" transform="translate(-354.145 -229.836)" fill="#fff"/>
  <path id="Tracé_2054" data-name="Tracé 2054" d="M394.162,248.143H374.173a1.94,1.94,0,0,0-1.61.706,2.74,2.74,0,0,0-.563,1.766,3.178,3.178,0,0,0,.747,1.854,6.724,6.724,0,0,0,1.589,1.567q.462.327,2.784,1.936c.836.579,1.562,1.084,2.187,1.52.533.371.992.692,1.371.959l.2.144.374.27q.442.319.734.516c.195.133.43.279.706.442a4.033,4.033,0,0,0,.781.366,2.159,2.159,0,0,0,.679.123h.027a2.159,2.159,0,0,0,.679-.123,4.033,4.033,0,0,0,.781-.366c.276-.163.511-.31.707-.442s.439-.3.733-.516c.153-.11.276-.2.375-.269l.2-.145,1.374-.955,4.982-3.459a6.447,6.447,0,0,0,1.656-1.669,3.588,3.588,0,0,0,.666-2.05,2.19,2.19,0,0,0-2.173-2.173Z" transform="translate(-357.399 -230.934)" fill="#fff"/>
  <path id="Tracé_2055" data-name="Tracé 2055" d="M386.769,234a26.769,26.769,0,1,0,26.769,26.769A26.768,26.768,0,0,0,386.769,234Zm0,51.1A24.336,24.336,0,1,1,411.1,260.769,24.335,24.335,0,0,1,386.769,285.1Z" transform="translate(-360 -234)" fill="#fff"/>
</svg>
