<svg id="Groupe_13" data-name="Groupe 13" xmlns="http://www.w3.org/2000/svg" width="53.538" height="53.538" viewBox="0 0 53.538 53.538">
  <path id="Tracé_2047" data-name="Tracé 2047" d="M260.769,234a26.769,26.769,0,1,0,26.769,26.769A26.768,26.768,0,0,0,260.769,234Zm0,51.1A24.336,24.336,0,1,1,285.1,260.769,24.335,24.335,0,0,1,260.769,285.1Z" transform="translate(-234 -234)" fill="#fff"/>
  <path id="Tracé_2048" data-name="Tracé 2048" d="M263.485,254.286h-4.657v-3.4c0-1.042,1.078-1.284,1.582-1.284h3.008v-4.586L259.969,245c-4.7,0-5.777,3.419-5.777,5.612v3.675h-3.413v4.726h3.413v12.757h4.636V259.012h3.937Z" transform="translate(-230.363 -231.615)" fill="#fff"/>
</svg>
