<svg xmlns="http://www.w3.org/2000/svg" width="19.468" height="19.469" viewBox="0 0 19.468 19.469">
  <g id="Groupe_92" data-name="Groupe 92" transform="translate(0 0)">
    <path id="Tracé_2145" data-name="Tracé 2145" d="M79.353,223.428a5.061,5.061,0,1,0-4.687-5.047A4.883,4.883,0,0,0,79.353,223.428Zm0-8.652a3.615,3.615,0,1,1-3.348,3.605A3.487,3.487,0,0,1,79.353,214.775Z" transform="translate(-69.619 -213.333)" fill="#fff"/>
    <path id="Tracé_2146" data-name="Tracé 2146" d="M17.209,386.064A16.238,16.238,0,0,0,9.734,384a16.238,16.238,0,0,0-7.475,2.064A4.351,4.351,0,0,0,0,389.92v.66a2.033,2.033,0,0,0,1.987,2.073H17.482a2.033,2.033,0,0,0,1.987-2.073v-.66A4.351,4.351,0,0,0,17.209,386.064Zm.869,4.516a.615.615,0,0,1-.6.631H1.987a.615.615,0,0,1-.6-.631v-.66a2.905,2.905,0,0,1,1.51-2.576,14.885,14.885,0,0,1,6.834-1.9,14.885,14.885,0,0,1,6.834,1.9,2.905,2.905,0,0,1,1.51,2.576Z" transform="translate(0 -373.184)" fill="#fff"/>
  </g>
</svg>
