<svg id="Group_5" data-name="Group 5" xmlns="http://www.w3.org/2000/svg" width="24" height="30" viewBox="0 0 24 30">
  <path id="Fill_1" data-name="Fill 1" d="M17.523,27H2.476C0,27,0,26.8,0,24.412V2.588C0,.2,0,0,2.476,0h9.173a2,2,0,0,1,1.291.477l6.353,5.441A2.033,2.033,0,0,1,20,7.464V24.412C20,26.8,20,27,17.523,27ZM6.667,20.251a1.35,1.35,0,0,0,0,2.7h4a1.35,1.35,0,0,0,0-2.7Zm0-5.4a1.35,1.35,0,0,0,0,2.7H16a1.35,1.35,0,0,0,0-2.7Z" fill="#cda913"/>
  <path id="Fill_3" data-name="Fill 3" d="M2.437,0H12.779A1.943,1.943,0,0,1,14.05.478L20.3,5.918A2.048,2.048,0,0,1,21,7.464V24.412C21,26.83,20.972,27,18.563,27H2.437C.028,27,0,26.83,0,24.412V2.588C0,.17.028,0,2.437,0Z" transform="translate(3 3)" fill="#cda913"/>
  <path id="Path" d="M1.333,0a1.333,1.333,0,1,0,0,2.666h4A1.333,1.333,0,1,0,5.332,0Z" transform="translate(5.648 19.884)" fill="#fff"/>
  <path id="Path-2" data-name="Path" d="M1.333,0a1.333,1.333,0,1,0,0,2.666h9.331a1.333,1.333,0,1,0,0-2.666Z" transform="translate(5.648 14.552)" fill="#fff"/>
</svg>
