<svg id="Icon" xmlns="http://www.w3.org/2000/svg" width="29.325" height="24.695" viewBox="0 0 29.325 24.695">
  <g id="Group_5" data-name="Group 5">
    <path id="Fill_1" data-name="Fill 1" d="M1.544,24.695A1.542,1.542,0,0,1,0,23.151V10.8A1.542,1.542,0,0,1,1.544,9.26H6.173A1.542,1.542,0,0,1,7.717,10.8V23.151a1.542,1.542,0,0,1-1.544,1.544Zm0-18.521A1.542,1.542,0,0,1,0,4.631V1.544A1.542,1.542,0,0,1,1.544,0H27.781a1.542,1.542,0,0,1,1.543,1.544V4.631a1.542,1.542,0,0,1-1.543,1.543Z" fill="#fff"/>
    <path id="Path" d="M1.543,0H16.977a1.542,1.542,0,0,1,1.543,1.543V4.63a1.542,1.542,0,0,1-1.543,1.543H1.543A1.542,1.542,0,0,1,0,4.63V1.543A1.542,1.542,0,0,1,1.543,0" transform="translate(10.804 18.521)" fill="#cda913"/>
    <path id="Path-2" data-name="Path" d="M1.543,0H16.977a1.542,1.542,0,0,1,1.543,1.543V4.63a1.542,1.542,0,0,1-1.543,1.543H1.543A1.542,1.542,0,0,1,0,4.63V1.543A1.542,1.542,0,0,1,1.543,0" transform="translate(10.804 9.26)" fill="#cda913"/>
  </g>
</svg>
