<svg id="Group_5" data-name="Group 5" xmlns="http://www.w3.org/2000/svg" width="23.838" height="26.68" viewBox="0 0 23.838 26.68">
  <path id="Fill_1" data-name="Fill 1" d="M13.233,19.29l9.422-7.5.232-.183a2.2,2.2,0,0,0,0-3.446L13.233.478a2.2,2.2,0,0,0-2.737,0L.83,8.166a2.2,2.2,0,0,0-.352,3.091,2.329,2.329,0,0,0,.35.35l.229.182,9.437,7.5a2.2,2.2,0,0,0,2.739,0" transform="translate(0.057)" fill="#cda913"/>
  <path id="Fill_3" data-name="Fill 3" d="M10.537,6.968,2.151.3A1.324,1.324,0,0,0,.29.512L.28.525A1.333,1.333,0,0,0,.517,2.4l.006,0,10.06,7.693a2.2,2.2,0,0,0,2.673,0L23.31,2.406A1.342,1.342,0,0,0,23.562.525a.026.026,0,0,1-.006-.007A1.335,1.335,0,0,0,21.682.28l-.013.01L13.275,6.968a2.2,2.2,0,0,1-2.737,0" transform="translate(0 16.133)" fill="#fff"/>
</svg>
