<svg xmlns="http://www.w3.org/2000/svg" width="24.791" height="28.33" viewBox="0 0 24.791 28.33">
  <path id="Icon_awesome-snowflake" data-name="Icon awesome-snowflake" d="M24.362,19.1l-1.87-1.079,1.439-.387a.856.856,0,0,0,.6-1.046l-.221-.824a.856.856,0,0,0-1.046-.6l-3.918,1.051-3.536-2.047,3.53-2.042,3.918,1.051a.856.856,0,0,0,1.046-.6l.221-.824a.856.856,0,0,0-.6-1.046l-1.439-.387,1.87-1.079a.858.858,0,0,0,.315-1.168l-.858-1.483a.858.858,0,0,0-1.168-.315l-1.87,1.079.387-1.439a.856.856,0,0,0-.6-1.046l-.824-.221a.856.856,0,0,0-1.046.6L17.639,9.163l-3.475,2V6.878l2.971-2.971a.888.888,0,0,0,0-1.251l-.625-.625a.888.888,0,0,0-1.251,0l-1.1,1.09V.885A.888.888,0,0,0,13.279,0H11.509a.888.888,0,0,0-.885.885V3.121l-1.09-1.09a.888.888,0,0,0-1.251,0l-.631.625a.878.878,0,0,0,0,1.251l2.971,2.971v4.288l-3.475-2L6.1,5.245a.856.856,0,0,0-1.046-.6l-.824.221a.856.856,0,0,0-.6,1.046l.387,1.439L2.141,6.269a.854.854,0,0,0-1.168.315L.116,8.062A.854.854,0,0,0,.431,9.229L2.3,10.308.863,10.7a.858.858,0,0,0-.609,1.051l.221.824a.856.856,0,0,0,1.046.6l3.918-1.051,3.53,2.042-3.53,2.042L1.521,15.155a.856.856,0,0,0-1.046.6l-.221.824a.856.856,0,0,0,.6,1.046l1.439.387L.426,19.1A.858.858,0,0,0,.11,20.268l.858,1.483a.858.858,0,0,0,1.168.315l1.87-1.079-.387,1.439a.856.856,0,0,0,.6,1.046l.824.221a.856.856,0,0,0,1.046-.6l1.051-3.918,3.475-2v4.288L7.646,24.429a.878.878,0,0,0,0,1.251l.625.625a.888.888,0,0,0,1.251,0l1.09-1.09v2.23a.888.888,0,0,0,.885.885h1.771a.888.888,0,0,0,.885-.885V25.209l1.09,1.09a.888.888,0,0,0,1.251,0l.625-.625a.888.888,0,0,0,0-1.251l-2.955-2.971V17.164l3.475,2,1.051,3.918a.856.856,0,0,0,1.046.6l.824-.221a.856.856,0,0,0,.6-1.046l-.387-1.439,1.87,1.079a.854.854,0,0,0,1.168-.315l.858-1.483A.845.845,0,0,0,24.362,19.1Z" transform="translate(0.002)" fill="#cda913"/>
</svg>
