<svg xmlns="http://www.w3.org/2000/svg" width="22.623" height="22.623" viewBox="0 0 22.623 22.623">
  <path id="Icon_metro-feed3" data-name="Icon metro-feed3" d="M21.424,1.928H6.342A3.782,3.782,0,0,0,2.571,5.7V20.78a3.781,3.781,0,0,0,3.771,3.771H21.424a3.781,3.781,0,0,0,3.77-3.771V5.7a3.782,3.782,0,0,0-3.77-3.771ZM8.733,20.293a1.916,1.916,0,1,1,1.923-1.914A1.917,1.917,0,0,1,8.733,20.293Zm4.828.017a6.754,6.754,0,0,0-6.746-6.762V10.782a9.538,9.538,0,0,1,9.525,9.528H13.561Zm4.908,0A11.673,11.673,0,0,0,6.818,8.646V5.878A14.447,14.447,0,0,1,21.244,20.31H18.47Z" transform="translate(-2.571 -1.928)" fill="#cda913"/>
</svg>
